G04 #@! TF.GenerationSoftware,KiCad,Pcbnew,9.0.5*
G04 #@! TF.CreationDate,2026-01-24T20:32:37+01:00*
G04 #@! TF.ProjectId,pusherLys,70757368-6572-44c7-9973-2e6b69636164,rev?*
G04 #@! TF.SameCoordinates,PX5e3a8f0PY7c06000*
G04 #@! TF.FileFunction,Copper,L2,Bot*
G04 #@! TF.FilePolarity,Positive*
%FSLAX46Y46*%
G04 Gerber Fmt 4.6, Leading zero omitted, Abs format (unit mm)*
G04 Created by KiCad (PCBNEW 9.0.5) date 2026-01-24 20:32:37*
%MOMM*%
%LPD*%
G01*
G04 APERTURE LIST*
G04 Aperture macros list*
%AMRoundRect*
0 Rectangle with rounded corners*
0 $1 Rounding radius*
0 $2 $3 $4 $5 $6 $7 $8 $9 X,Y pos of 4 corners*
0 Add a 4 corners polygon primitive as box body*
4,1,4,$2,$3,$4,$5,$6,$7,$8,$9,$2,$3,0*
0 Add four circle primitives for the rounded corners*
1,1,$1+$1,$2,$3*
1,1,$1+$1,$4,$5*
1,1,$1+$1,$6,$7*
1,1,$1+$1,$8,$9*
0 Add four rect primitives between the rounded corners*
20,1,$1+$1,$2,$3,$4,$5,0*
20,1,$1+$1,$4,$5,$6,$7,0*
20,1,$1+$1,$6,$7,$8,$9,0*
20,1,$1+$1,$8,$9,$2,$3,0*%
G04 Aperture macros list end*
G04 #@! TA.AperFunction,ComponentPad*
%ADD10C,1.600000*%
G04 #@! TD*
G04 #@! TA.AperFunction,ComponentPad*
%ADD11RoundRect,0.250001X1.149999X-1.149999X1.149999X1.149999X-1.149999X1.149999X-1.149999X-1.149999X0*%
G04 #@! TD*
G04 #@! TA.AperFunction,ComponentPad*
%ADD12C,2.800000*%
G04 #@! TD*
G04 #@! TA.AperFunction,ComponentPad*
%ADD13R,1.500000X1.500000*%
G04 #@! TD*
G04 #@! TA.AperFunction,ComponentPad*
%ADD14RoundRect,0.250000X-0.550000X0.550000X-0.550000X-0.550000X0.550000X-0.550000X0.550000X0.550000X0*%
G04 #@! TD*
G04 #@! TA.AperFunction,ComponentPad*
%ADD15R,1.200000X2.000000*%
G04 #@! TD*
G04 #@! TA.AperFunction,ComponentPad*
%ADD16O,1.200000X2.000000*%
G04 #@! TD*
G04 #@! TA.AperFunction,ComponentPad*
%ADD17RoundRect,0.250000X-0.950000X-0.550000X0.950000X-0.550000X0.950000X0.550000X-0.950000X0.550000X0*%
G04 #@! TD*
G04 #@! TA.AperFunction,ComponentPad*
%ADD18O,2.400000X1.600000*%
G04 #@! TD*
G04 #@! TA.AperFunction,Conductor*
%ADD19C,0.762000*%
G04 #@! TD*
G04 #@! TA.AperFunction,Conductor*
%ADD20C,2.540000*%
G04 #@! TD*
G04 #@! TA.AperFunction,Profile*
%ADD21C,0.050000*%
G04 #@! TD*
G04 APERTURE END LIST*
D10*
G04 #@! TO.P,R6,1*
G04 #@! TO.N,Net-(J2-Pin_6)*
X100584000Y38862000D03*
G04 #@! TO.P,R6,2*
G04 #@! TO.N,Net-(IC1-B3)*
X90424000Y38862000D03*
G04 #@! TD*
G04 #@! TO.P,R2,1*
G04 #@! TO.N,Net-(J1-Pin_1)*
X15494000Y18542000D03*
G04 #@! TO.P,R2,2*
G04 #@! TO.N,Net-(U2-IN+)*
X25654000Y18542000D03*
G04 #@! TD*
G04 #@! TO.P,R9,1*
G04 #@! TO.N,Net-(U3-5V)*
X63500000Y18542000D03*
G04 #@! TO.P,R9,2*
G04 #@! TO.N,Net-(U2-OUT+)*
X53340000Y18542000D03*
G04 #@! TD*
D11*
G04 #@! TO.P,J1,1,Pin_1*
G04 #@! TO.N,Net-(J1-Pin_1)*
X8389500Y14772000D03*
D12*
G04 #@! TO.P,J1,2,Pin_2*
G04 #@! TO.N,GNDD*
X8389500Y19772000D03*
G04 #@! TD*
D13*
G04 #@! TO.P,U2,1,IN+*
G04 #@! TO.N,Net-(U2-IN+)*
X32258000Y18542000D03*
G04 #@! TO.P,U2,2,IN-*
G04 #@! TO.N,GNDD*
X32258000Y10542000D03*
G04 #@! TO.P,U2,3,OUT-*
X46758000Y10542000D03*
G04 #@! TO.P,U2,4,OUT+*
G04 #@! TO.N,Net-(U2-OUT+)*
X46758000Y18542000D03*
G04 #@! TD*
D10*
G04 #@! TO.P,C4,1*
G04 #@! TO.N,Net-(U3-5V)*
X58206000Y22860000D03*
G04 #@! TO.P,C4,2*
G04 #@! TO.N,GNDD*
X63206000Y22860000D03*
G04 #@! TD*
D14*
G04 #@! TO.P,C2,1*
G04 #@! TO.N,Net-(U2-OUT+)*
X53340000Y14848651D03*
D10*
G04 #@! TO.P,C2,2*
G04 #@! TO.N,GNDD*
X53340000Y9848651D03*
G04 #@! TD*
D15*
G04 #@! TO.P,U3,1,3V3*
G04 #@! TO.N,Net-(U3-3V3-Pad1)*
X7366000Y26924000D03*
D16*
G04 #@! TO.P,U3,2,3V3*
X9906000Y26924000D03*
G04 #@! TO.P,U3,3,CHIP_PU*
G04 #@! TO.N,unconnected-(U3-CHIP_PU-Pad3)*
X12446000Y26924000D03*
G04 #@! TO.P,U3,4,GPIO4/ADC1_CH3*
G04 #@! TO.N,Net-(IC1-A1)*
X14986000Y26924000D03*
G04 #@! TO.P,U3,5,GPIO5/ADC1_CH4*
G04 #@! TO.N,Net-(IC1-A2)*
X17526000Y26924000D03*
G04 #@! TO.P,U3,6,GPIO6/ADC1_CH5*
G04 #@! TO.N,Net-(IC1-A3)*
X20066000Y26924000D03*
G04 #@! TO.P,U3,7,GPIO7/ADC1_CH6*
G04 #@! TO.N,Net-(IC1-A4)*
X22606000Y26924000D03*
G04 #@! TO.P,U3,8,GPIO15/ADC2_CH4/32K_P*
G04 #@! TO.N,Net-(IC1-A5)*
X25146000Y26924000D03*
G04 #@! TO.P,U3,9,GPIO16/ADC2_CH5/32K_N*
G04 #@! TO.N,Net-(IC1-A6)*
X27686000Y26924000D03*
G04 #@! TO.P,U3,10,GPIO17/ADC2_CH6*
G04 #@! TO.N,unconnected-(U3-GPIO17{slash}ADC2_CH6-Pad10)*
X30226000Y26924000D03*
G04 #@! TO.P,U3,11,GPIO18/ADC2_CH7*
G04 #@! TO.N,unconnected-(U3-GPIO18{slash}ADC2_CH7-Pad11)*
X32766000Y26924000D03*
G04 #@! TO.P,U3,12,GPIO8/ADC1_CH7*
G04 #@! TO.N,unconnected-(U3-GPIO8{slash}ADC1_CH7-Pad12)*
X35306000Y26924000D03*
G04 #@! TO.P,U3,13,GPIO3/ADC1_CH2*
G04 #@! TO.N,unconnected-(U3-GPIO3{slash}ADC1_CH2-Pad13)*
X37846000Y26924000D03*
G04 #@! TO.P,U3,14,GPIO46*
G04 #@! TO.N,unconnected-(U3-GPIO46-Pad14)*
X40386000Y26924000D03*
G04 #@! TO.P,U3,15,GPIO9/ADC1_CH8*
G04 #@! TO.N,unconnected-(U3-GPIO9{slash}ADC1_CH8-Pad15)*
X42926000Y26924000D03*
G04 #@! TO.P,U3,16,GPIO10/ADC1_CH9*
G04 #@! TO.N,unconnected-(U3-GPIO10{slash}ADC1_CH9-Pad16)*
X45466000Y26924000D03*
G04 #@! TO.P,U3,17,GPIO11/ADC2_CH0*
G04 #@! TO.N,unconnected-(U3-GPIO11{slash}ADC2_CH0-Pad17)*
X48006000Y26924000D03*
G04 #@! TO.P,U3,18,GPIO12/ADC2_CH1*
G04 #@! TO.N,unconnected-(U3-GPIO12{slash}ADC2_CH1-Pad18)*
X50546000Y26924000D03*
G04 #@! TO.P,U3,19,GPIO13/ADC2_CH2*
G04 #@! TO.N,unconnected-(U3-GPIO13{slash}ADC2_CH2-Pad19)*
X53086000Y26924000D03*
G04 #@! TO.P,U3,20,GPIO14/ADC2_CH3*
G04 #@! TO.N,unconnected-(U3-GPIO14{slash}ADC2_CH3-Pad20)*
X55623280Y26920320D03*
G04 #@! TO.P,U3,21,5V*
G04 #@! TO.N,Net-(U3-5V)*
X58163280Y26920320D03*
G04 #@! TO.P,U3,22,GND*
G04 #@! TO.N,GNDD*
X60703280Y26920320D03*
G04 #@! TO.P,U3,23,GND*
X60706000Y52324000D03*
G04 #@! TO.P,U3,24,GND*
X58166000Y52324000D03*
G04 #@! TO.P,U3,25,GPIO19/USB_D-*
G04 #@! TO.N,unconnected-(U3-GPIO19{slash}USB_D--Pad25)*
X55626000Y52324000D03*
G04 #@! TO.P,U3,26,GPIO20/USB_D+*
G04 #@! TO.N,unconnected-(U3-GPIO20{slash}USB_D+-Pad26)*
X53086000Y52324000D03*
G04 #@! TO.P,U3,27,GPIO21*
G04 #@! TO.N,unconnected-(U3-GPIO21-Pad27)*
X50546000Y52324000D03*
G04 #@! TO.P,U3,28,GPIO47*
G04 #@! TO.N,unconnected-(U3-GPIO47-Pad28)*
X48006000Y52324000D03*
G04 #@! TO.P,U3,29,GPIO48*
G04 #@! TO.N,unconnected-(U3-GPIO48-Pad29)*
X45466000Y52324000D03*
G04 #@! TO.P,U3,30,GPIO45*
G04 #@! TO.N,unconnected-(U3-GPIO45-Pad30)*
X42926000Y52324000D03*
G04 #@! TO.P,U3,31,GPIO0*
G04 #@! TO.N,unconnected-(U3-GPIO0-Pad31)*
X40386000Y52324000D03*
G04 #@! TO.P,U3,32,GPIO35*
G04 #@! TO.N,unconnected-(U3-GPIO35-Pad32)*
X37846000Y52324000D03*
G04 #@! TO.P,U3,33,GPIO36*
G04 #@! TO.N,unconnected-(U3-GPIO36-Pad33)*
X35306000Y52324000D03*
G04 #@! TO.P,U3,34,GPIO37*
G04 #@! TO.N,unconnected-(U3-GPIO37-Pad34)*
X32766000Y52324000D03*
G04 #@! TO.P,U3,35,GPIO38*
G04 #@! TO.N,unconnected-(U3-GPIO38-Pad35)*
X30226000Y52324000D03*
G04 #@! TO.P,U3,36,GPIO39/MTCK*
G04 #@! TO.N,unconnected-(U3-GPIO39{slash}MTCK-Pad36)*
X27686000Y52324000D03*
G04 #@! TO.P,U3,37,GPIO40/MTDO*
G04 #@! TO.N,unconnected-(U3-GPIO40{slash}MTDO-Pad37)*
X25146000Y52324000D03*
G04 #@! TO.P,U3,38,GPIO41/MTDI*
G04 #@! TO.N,unconnected-(U3-GPIO41{slash}MTDI-Pad38)*
X22606000Y52324000D03*
G04 #@! TO.P,U3,39,GPIO42/MTMS*
G04 #@! TO.N,unconnected-(U3-GPIO42{slash}MTMS-Pad39)*
X20066000Y52324000D03*
G04 #@! TO.P,U3,40,GPIO2/ADC1_CH1*
G04 #@! TO.N,unconnected-(U3-GPIO2{slash}ADC1_CH1-Pad40)*
X17526000Y52324000D03*
G04 #@! TO.P,U3,41,GPIO1/ADC1_CH0*
G04 #@! TO.N,unconnected-(U3-GPIO1{slash}ADC1_CH0-Pad41)*
X14986000Y52324000D03*
G04 #@! TO.P,U3,42,GPIO44/U0RXD*
G04 #@! TO.N,unconnected-(U3-GPIO44{slash}U0RXD-Pad42)*
X12446000Y52324000D03*
G04 #@! TO.P,U3,43,GPIO43/U0TXD*
G04 #@! TO.N,unconnected-(U3-GPIO43{slash}U0TXD-Pad43)*
X9906000Y52324000D03*
G04 #@! TO.P,U3,44,GND*
G04 #@! TO.N,GNDD*
X7366000Y52324000D03*
G04 #@! TD*
D10*
G04 #@! TO.P,R4,1*
G04 #@! TO.N,Net-(J2-Pin_4)*
X100584000Y28956000D03*
G04 #@! TO.P,R4,2*
G04 #@! TO.N,Net-(IC1-B5)*
X90424000Y28956000D03*
G04 #@! TD*
G04 #@! TO.P,R8,1*
G04 #@! TO.N,Net-(J2-Pin_8)*
X100584000Y49022000D03*
G04 #@! TO.P,R8,2*
G04 #@! TO.N,Net-(IC1-B1)*
X90424000Y49022000D03*
G04 #@! TD*
G04 #@! TO.P,R3,1*
G04 #@! TO.N,Net-(J2-Pin_3)*
X100584000Y24130000D03*
G04 #@! TO.P,R3,2*
G04 #@! TO.N,Net-(IC1-B6)*
X90424000Y24130000D03*
G04 #@! TD*
D11*
G04 #@! TO.P,J2,1,Pin_1*
G04 #@! TO.N,Net-(J1-Pin_1)*
X106901500Y13992000D03*
D12*
G04 #@! TO.P,J2,2,Pin_2*
G04 #@! TO.N,GNDD*
X106901500Y18992000D03*
G04 #@! TO.P,J2,3,Pin_3*
G04 #@! TO.N,Net-(J2-Pin_3)*
X106901500Y23992000D03*
G04 #@! TO.P,J2,4,Pin_4*
G04 #@! TO.N,Net-(J2-Pin_4)*
X106901500Y28992000D03*
G04 #@! TO.P,J2,5,Pin_5*
G04 #@! TO.N,Net-(J2-Pin_5)*
X106901500Y33992000D03*
G04 #@! TO.P,J2,6,Pin_6*
G04 #@! TO.N,Net-(J2-Pin_6)*
X106901500Y38992000D03*
G04 #@! TO.P,J2,7,Pin_7*
G04 #@! TO.N,Net-(J2-Pin_7)*
X106901500Y43992000D03*
G04 #@! TO.P,J2,8,Pin_8*
G04 #@! TO.N,Net-(J2-Pin_8)*
X106901500Y48992000D03*
G04 #@! TD*
D10*
G04 #@! TO.P,R5,1*
G04 #@! TO.N,Net-(J2-Pin_5)*
X100584000Y34036000D03*
G04 #@! TO.P,R5,2*
G04 #@! TO.N,Net-(IC1-B4)*
X90424000Y34036000D03*
G04 #@! TD*
D14*
G04 #@! TO.P,C1,1*
G04 #@! TO.N,Net-(U2-IN+)*
X25654000Y14848651D03*
D10*
G04 #@! TO.P,C1,2*
G04 #@! TO.N,GNDD*
X25654000Y9848651D03*
G04 #@! TD*
G04 #@! TO.P,R7,1*
G04 #@! TO.N,Net-(J2-Pin_7)*
X100584000Y43942000D03*
G04 #@! TO.P,R7,2*
G04 #@! TO.N,Net-(IC1-B2)*
X90424000Y43942000D03*
G04 #@! TD*
D17*
G04 #@! TO.P,IC1,1,DIR*
G04 #@! TO.N,Net-(IC1-DIR)*
X74074000Y49784000D03*
D18*
G04 #@! TO.P,IC1,2,A1*
G04 #@! TO.N,Net-(IC1-A1)*
X74074000Y47244000D03*
G04 #@! TO.P,IC1,3,A2*
G04 #@! TO.N,Net-(IC1-A2)*
X74074000Y44704000D03*
G04 #@! TO.P,IC1,4,A3*
G04 #@! TO.N,Net-(IC1-A3)*
X74074000Y42164000D03*
G04 #@! TO.P,IC1,5,A4*
G04 #@! TO.N,Net-(IC1-A4)*
X74074000Y39624000D03*
G04 #@! TO.P,IC1,6,A5*
G04 #@! TO.N,Net-(IC1-A5)*
X74074000Y37084000D03*
G04 #@! TO.P,IC1,7,A6*
G04 #@! TO.N,Net-(IC1-A6)*
X74074000Y34544000D03*
G04 #@! TO.P,IC1,8,A7*
G04 #@! TO.N,unconnected-(IC1-A7-Pad8)*
X74074000Y32004000D03*
G04 #@! TO.P,IC1,9,A8*
G04 #@! TO.N,unconnected-(IC1-A8-Pad9)*
X74074000Y29464000D03*
G04 #@! TO.P,IC1,10,GND*
G04 #@! TO.N,GNDD*
X74074000Y26924000D03*
G04 #@! TO.P,IC1,11,B8*
G04 #@! TO.N,unconnected-(IC1-B8-Pad11)*
X81694000Y26924000D03*
G04 #@! TO.P,IC1,12,B7*
G04 #@! TO.N,unconnected-(IC1-B7-Pad12)*
X81694000Y29464000D03*
G04 #@! TO.P,IC1,13,B6*
G04 #@! TO.N,Net-(IC1-B6)*
X81694000Y32004000D03*
G04 #@! TO.P,IC1,14,B5*
G04 #@! TO.N,Net-(IC1-B5)*
X81694000Y34544000D03*
G04 #@! TO.P,IC1,15,B4*
G04 #@! TO.N,Net-(IC1-B4)*
X81694000Y37084000D03*
G04 #@! TO.P,IC1,16,B3*
G04 #@! TO.N,Net-(IC1-B3)*
X81694000Y39624000D03*
G04 #@! TO.P,IC1,17,B2*
G04 #@! TO.N,Net-(IC1-B2)*
X81694000Y42164000D03*
G04 #@! TO.P,IC1,18,B1*
G04 #@! TO.N,Net-(IC1-B1)*
X81694000Y44704000D03*
G04 #@! TO.P,IC1,19,~{OE}*
G04 #@! TO.N,GNDD*
X81694000Y47244000D03*
G04 #@! TO.P,IC1,20,VCC*
G04 #@! TO.N,Net-(IC1-DIR)*
X81694000Y49784000D03*
G04 #@! TD*
D10*
G04 #@! TO.P,C3,1*
G04 #@! TO.N,Net-(IC1-DIR)*
X80184000Y54102000D03*
G04 #@! TO.P,C3,2*
G04 #@! TO.N,GNDD*
X75184000Y54102000D03*
G04 #@! TD*
G04 #@! TO.P,R1,1*
G04 #@! TO.N,Net-(IC1-DIR)*
X95250000Y18542000D03*
G04 #@! TO.P,R1,2*
G04 #@! TO.N,Net-(U2-OUT+)*
X85090000Y18542000D03*
G04 #@! TD*
D19*
G04 #@! TO.N,Net-(IC1-A5)*
X25099920Y31289920D02*
X25099920Y27178000D01*
X30894000Y37084000D02*
X25099920Y31289920D01*
X74008000Y37084000D02*
X30894000Y37084000D01*
G04 #@! TO.N,GNDD*
X65697651Y16421651D02*
X59524349Y16421651D01*
X81694000Y47244000D02*
X78994000Y47244000D01*
X75184000Y54102000D02*
X60961840Y54102000D01*
X60961840Y54102000D02*
X60659920Y53800080D01*
X5494000Y30226000D02*
X5494000Y22667500D01*
X60659920Y52324000D02*
X60659920Y53800080D01*
X95758000Y13462000D02*
X92456000Y13462000D01*
X39878000Y20066000D02*
X39878000Y10542000D01*
X78994000Y47244000D02*
X77978000Y46228000D01*
X32258000Y10542000D02*
X39878000Y10542000D01*
X101288000Y18992000D02*
X97790000Y15494000D01*
X90170000Y18034000D02*
X85852000Y22352000D01*
X67310000Y22860000D02*
X67310000Y18034000D01*
X39878000Y10542000D02*
X46758000Y10542000D01*
X58072000Y56388000D02*
X10367000Y56388000D01*
X7319920Y53340920D02*
X7319920Y32051920D01*
X60703280Y25362720D02*
X63206000Y22860000D01*
X92456000Y13462000D02*
X90170000Y15748000D01*
X53086000Y22860000D02*
X42672000Y22860000D01*
X42672000Y22860000D02*
X39878000Y20066000D01*
X5494000Y22667500D02*
X8389500Y19772000D01*
X85852000Y22352000D02*
X80772000Y22352000D01*
X76200000Y57150000D02*
X94234000Y57150000D01*
X75184000Y54102000D02*
X75184000Y56134000D01*
X97790000Y15494000D02*
X95758000Y13462000D01*
X77978000Y28702000D02*
X76200000Y26924000D01*
X90170000Y15748000D02*
X90170000Y18034000D01*
X76200000Y26924000D02*
X74074000Y26924000D01*
X77978000Y46228000D02*
X77978000Y28702000D01*
X80772000Y22352000D02*
X76200000Y26924000D01*
X60703280Y26920320D02*
X60703280Y25362720D01*
X97536000Y53848000D02*
X97536000Y15748000D01*
X25654000Y9848651D02*
X31564651Y9848651D01*
X59524349Y16421651D02*
X53086000Y22860000D01*
X31564651Y9848651D02*
X32258000Y10542000D01*
X60659920Y53800080D02*
X58072000Y56388000D01*
X75184000Y56134000D02*
X76200000Y57150000D01*
X52646651Y10542000D02*
X53340000Y9848651D01*
X7319920Y32051920D02*
X5494000Y30226000D01*
X94234000Y57150000D02*
X97536000Y53848000D01*
X46758000Y10542000D02*
X52646651Y10542000D01*
X97536000Y15748000D02*
X97790000Y15494000D01*
X58166000Y52324000D02*
X60659920Y52324000D01*
X67310000Y22860000D02*
X70010000Y22860000D01*
X10367000Y56388000D02*
X7319920Y53340920D01*
X70010000Y22860000D02*
X74074000Y26924000D01*
X63206000Y22860000D02*
X67310000Y22860000D01*
X106901500Y18992000D02*
X101288000Y18992000D01*
X67310000Y18034000D02*
X65697651Y16421651D01*
G04 #@! TO.N,Net-(IC1-B4)*
X87757000Y34036000D02*
X90424000Y34036000D01*
X81694000Y37084000D02*
X84709000Y37084000D01*
X84709000Y37084000D02*
X87757000Y34036000D01*
G04 #@! TO.N,Net-(IC1-A4)*
X22559920Y32051920D02*
X22559920Y27178000D01*
X30132000Y39624000D02*
X22559920Y32051920D01*
X74008000Y39624000D02*
X30132000Y39624000D01*
G04 #@! TO.N,Net-(IC1-B6)*
X89408000Y24130000D02*
X90424000Y24130000D01*
X83312000Y32004000D02*
X86360000Y28956000D01*
X86360000Y28956000D02*
X86360000Y27178000D01*
X81694000Y32004000D02*
X83312000Y32004000D01*
X86360000Y27178000D02*
X89408000Y24130000D01*
G04 #@! TO.N,Net-(IC1-A6)*
X74008000Y34544000D02*
X31656000Y34544000D01*
X27639920Y30527920D02*
X27639920Y27178000D01*
X31656000Y34544000D02*
X27639920Y30527920D01*
G04 #@! TO.N,Net-(IC1-A3)*
X74008000Y42164000D02*
X29624000Y42164000D01*
X19972000Y32512000D02*
X20019920Y32464080D01*
X20019920Y32464080D02*
X20019920Y27178000D01*
X29624000Y42164000D02*
X19972000Y32512000D01*
G04 #@! TO.N,Net-(IC1-B5)*
X81694000Y34544000D02*
X83820000Y34544000D01*
X83820000Y34544000D02*
X89408000Y28956000D01*
X89408000Y28956000D02*
X90424000Y28956000D01*
G04 #@! TO.N,Net-(IC1-B3)*
X86360000Y38862000D02*
X90424000Y38862000D01*
X85598000Y39624000D02*
X86360000Y38862000D01*
X81694000Y39624000D02*
X85598000Y39624000D01*
D20*
G04 #@! TO.N,Net-(J1-Pin_1)*
X103400000Y13992000D02*
X106901500Y13992000D01*
X94234000Y4826000D02*
X103400000Y13992000D01*
D19*
X15494000Y18542000D02*
X15240000Y18542000D01*
D20*
X18288000Y4826000D02*
X94234000Y4826000D01*
X8389500Y14772000D02*
X8389500Y14724500D01*
D19*
X11470000Y14772000D02*
X8389500Y14772000D01*
X15240000Y18542000D02*
X11470000Y14772000D01*
D20*
X8389500Y14724500D02*
X18288000Y4826000D01*
D19*
G04 #@! TO.N,Net-(IC1-B2)*
X84836000Y42164000D02*
X86614000Y43942000D01*
X86614000Y43942000D02*
X90424000Y43942000D01*
X81694000Y42164000D02*
X84836000Y42164000D01*
G04 #@! TO.N,Net-(IC1-B1)*
X87884000Y49022000D02*
X90424000Y49022000D01*
X81694000Y44704000D02*
X83566000Y44704000D01*
X83566000Y44704000D02*
X87884000Y49022000D01*
G04 #@! TO.N,Net-(IC1-A2)*
X74008000Y44704000D02*
X28862000Y44704000D01*
X17479920Y33321920D02*
X17479920Y27178000D01*
X28862000Y44704000D02*
X17479920Y33321920D01*
G04 #@! TO.N,Net-(IC1-A1)*
X28354000Y47244000D02*
X14939920Y33829920D01*
X14939920Y33829920D02*
X14939920Y27178000D01*
X74008000Y47244000D02*
X28354000Y47244000D01*
G04 #@! TO.N,Net-(U2-IN+)*
X32258000Y18542000D02*
X25654000Y18542000D01*
X25654000Y18542000D02*
X25654000Y14848651D01*
G04 #@! TO.N,Net-(U2-OUT+)*
X53340000Y14848651D02*
X81396651Y14848651D01*
X53340000Y18542000D02*
X53340000Y14848651D01*
X46758000Y18542000D02*
X53340000Y18542000D01*
X81396651Y14848651D02*
X85090000Y18542000D01*
G04 #@! TO.N,Net-(IC1-DIR)*
X81694000Y49784000D02*
X81694000Y54008000D01*
X74074000Y49784000D02*
X81694000Y49784000D01*
X95250000Y18542000D02*
X95250000Y50546000D01*
X81788000Y54102000D02*
X80184000Y54102000D01*
X95250000Y50546000D02*
X91694000Y54102000D01*
X91694000Y54102000D02*
X81788000Y54102000D01*
X81694000Y54008000D02*
X81788000Y54102000D01*
G04 #@! TO.N,Net-(U3-5V)*
X60706000Y18542000D02*
X63500000Y18542000D01*
X58163280Y26920320D02*
X58163280Y22902720D01*
X58163280Y22902720D02*
X58206000Y22860000D01*
X58206000Y22860000D02*
X58206000Y21042000D01*
X58206000Y21042000D02*
X60706000Y18542000D01*
G04 #@! TO.N,Net-(J2-Pin_6)*
X100584000Y38862000D02*
X106771500Y38862000D01*
X106771500Y38862000D02*
X106901500Y38992000D01*
G04 #@! TO.N,Net-(J2-Pin_3)*
X106763500Y24130000D02*
X106901500Y23992000D01*
X100584000Y24130000D02*
X106763500Y24130000D01*
G04 #@! TO.N,Net-(J2-Pin_4)*
X100584000Y28956000D02*
X106865500Y28956000D01*
X106865500Y28956000D02*
X106901500Y28992000D01*
G04 #@! TO.N,Net-(J2-Pin_5)*
X100584000Y34036000D02*
X106857500Y34036000D01*
X106857500Y34036000D02*
X106901500Y33992000D01*
G04 #@! TO.N,Net-(J2-Pin_8)*
X106871500Y49022000D02*
X106901500Y48992000D01*
X100584000Y49022000D02*
X106871500Y49022000D01*
G04 #@! TO.N,Net-(J2-Pin_7)*
X106851500Y43942000D02*
X106901500Y43992000D01*
X100584000Y43942000D02*
X106851500Y43942000D01*
G04 #@! TD*
D21*
X1426000Y61214000D02*
X111426000Y61214000D01*
X111426000Y1214000D01*
X1426000Y1214000D01*
X1426000Y61214000D01*
M02*
