M48
; DRILL file {KiCad 9.0.5} date 2026-01-24T20:32:40+0100
; FORMAT={-:-/ absolute / inch / decimal}
; #@! TF.CreationDate,2026-01-24T20:32:40+01:00
; #@! TF.GenerationSoftware,Kicad,Pcbnew,9.0.5
; #@! TF.FileFunction,MixedPlating,1,2
FMAT,2
INCH
; #@! TA.AperFunction,Plated,PTH,ComponentDrill
T1C0.0315
; #@! TA.AperFunction,Plated,PTH,ComponentDrill
T2C0.0319
; #@! TA.AperFunction,Plated,PTH,ComponentDrill
T3C0.0512
; #@! TA.AperFunction,Plated,PTH,ComponentDrill
T4C0.0551
; #@! TA.AperFunction,NonPlated,NPTH,ComponentDrill
T5C0.1378
%
G90
G05
T1
X0.29Y2.06
X0.29Y1.06
X0.39Y2.06
X0.39Y1.06
X0.49Y2.06
X0.49Y1.06
X0.59Y2.06
X0.59Y1.06
X0.61Y0.73
X0.69Y2.06
X0.69Y1.06
X0.79Y2.06
X0.79Y1.06
X0.89Y2.06
X0.89Y1.06
X0.99Y2.06
X0.99Y1.06
X1.01Y0.73
X1.01Y0.5846
X1.01Y0.3877
X1.09Y2.06
X1.09Y1.06
X1.19Y2.06
X1.19Y1.06
X1.29Y2.06
X1.29Y1.06
X1.39Y2.06
X1.39Y1.06
X1.49Y2.06
X1.49Y1.06
X1.59Y2.06
X1.59Y1.06
X1.69Y2.06
X1.69Y1.06
X1.79Y2.06
X1.79Y1.06
X1.89Y2.06
X1.89Y1.06
X1.99Y2.06
X1.99Y1.06
X2.09Y2.06
X2.09Y1.06
X2.1Y0.73
X2.1Y0.5846
X2.1Y0.3877
X2.1899Y1.0599
X2.19Y2.06
X2.2899Y1.0599
X2.29Y2.06
X2.2916Y0.9
X2.3899Y1.0599
X2.39Y2.06
X2.4884Y0.9
X2.5Y0.73
X2.9163Y1.96
X2.9163Y1.86
X2.9163Y1.76
X2.9163Y1.66
X2.9163Y1.56
X2.9163Y1.46
X2.9163Y1.36
X2.9163Y1.26
X2.9163Y1.16
X2.9163Y1.06
X2.96Y2.13
X3.1569Y2.13
X3.2163Y1.96
X3.2163Y1.86
X3.2163Y1.76
X3.2163Y1.66
X3.2163Y1.56
X3.2163Y1.46
X3.2163Y1.36
X3.2163Y1.26
X3.2163Y1.16
X3.2163Y1.06
X3.35Y0.73
X3.56Y1.93
X3.56Y1.73
X3.56Y1.53
X3.56Y1.34
X3.56Y1.14
X3.56Y0.95
X3.75Y0.73
X3.96Y1.93
X3.96Y1.73
X3.96Y1.53
X3.96Y1.34
X3.96Y1.14
X3.96Y0.95
T2
X1.27Y0.73
X1.27Y0.415
X1.8409Y0.73
X1.8409Y0.415
T3
X4.2087Y1.9288
X4.2087Y1.732
X4.2087Y1.5351
X4.2087Y1.3383
X4.2087Y1.1414
X4.2087Y0.9446
X4.2087Y0.7477
X4.2087Y0.5509
T4
X0.3303Y0.7784
X0.3303Y0.5816
T5
X0.2063Y2.26
X0.2063Y0.2
X4.23Y2.26
X4.23Y0.2
M30
